<svg width="16" height="16" viewBox="0 0 16 16" fill="none" xmlns="http://www.w3.org/2000/svg">
<path d="M4.86071 13.8827L1.33338 14.6667L2.11738 11.1393C1.60107 10.1736 1.33173 9.09511 1.33338 8.00001C1.33338 4.31801 4.31805 1.33334 8.00005 1.33334C11.682 1.33334 14.6667 4.31801 14.6667 8.00001C14.6667 11.682 11.682 14.6667 8.00005 14.6667C6.90495 14.6683 5.82646 14.399 4.86071 13.8827ZM5.05405 12.474L5.48938 12.7073C6.26175 13.1201 7.12431 13.3352 8.00005 13.3333C9.05488 13.3333 10.086 13.0205 10.9631 12.4345C11.8402 11.8485 12.5237 11.0155 12.9274 10.041C13.3311 9.06645 13.4367 7.99409 13.2309 6.95953C13.0251 5.92496 12.5172 4.97465 11.7713 4.22877C11.0254 3.48289 10.0751 2.97494 9.04053 2.76916C8.00596 2.56337 6.93361 2.66899 5.95907 3.07265C4.98453 3.47632 4.15158 4.15991 3.56554 5.03697C2.97951 5.91403 2.66671 6.94518 2.66671 8.00001C2.66671 8.88934 2.88338 9.74534 3.29338 10.5107L3.52605 10.946L3.08938 12.9107L5.05405 12.474Z" fill="white"/>
</svg>
